# xmcd CD database file
#
# Track frame offsets:
#	150
#	16940
#	38177
#	52810
#
# Disc length: 934 seconds
#
# Revision: 0
# Processed by: cddbd v1.5.1PL0 Copyright (c) Steve Scherf et al.
# Submitted via: CDex 1.51
#
DISCID=2403a404
DTITLE=SOUL-D! - SUPERSOLDMUSIC
DYEAR=2002
DGENRE=Rock
TTITLE0=SUPERSOLDMUSIC
TTITLE1=LIGHT SAVER
TTITLE2=TRIPLE SONIC
TTITLE3=Hi-STYLE
EXTD=YEAR: 2002
EXTT0=
EXTT1=
EXTT2=
EXTT3=
PLAYORDER=
